<mxfile host="65bd71144e" pages="4">
    <diagram id="y-obnfCGEj2HvSQuGQaU" name="DB-Layers">
        <mxGraphModel dx="1929" dy="761" grid="1" gridSize="10" guides="1" tooltips="1" connect="1" arrows="1" fold="1" page="1" pageScale="1" pageWidth="850" pageHeight="1100" math="0" shadow="0">
            <root>
                <mxCell id="0"/>
                <mxCell id="1" parent="0"/>
                <mxCell id="yFSjDOY83YNJ4VVnouCh-31" value="" style="edgeStyle=orthogonalEdgeStyle;rounded=0;orthogonalLoop=1;jettySize=auto;html=1;fontSize=15;" parent="1" source="yFSjDOY83YNJ4VVnouCh-1" target="yFSjDOY83YNJ4VVnouCh-11" edge="1">
                    <mxGeometry relative="1" as="geometry"/>
                </mxCell>
                <mxCell id="yFSjDOY83YNJ4VVnouCh-1" value="Usuario 1" style="shape=umlActor;verticalLabelPosition=bottom;verticalAlign=top;html=1;outlineConnect=0;fontSize=15;" parent="1" vertex="1">
                    <mxGeometry x="120" y="40" width="30" height="60" as="geometry"/>
                </mxCell>
                <mxCell id="yFSjDOY83YNJ4VVnouCh-32" value="" style="edgeStyle=orthogonalEdgeStyle;rounded=0;orthogonalLoop=1;jettySize=auto;html=1;fontSize=15;" parent="1" source="yFSjDOY83YNJ4VVnouCh-2" target="yFSjDOY83YNJ4VVnouCh-12" edge="1">
                    <mxGeometry relative="1" as="geometry"/>
                </mxCell>
                <mxCell id="yFSjDOY83YNJ4VVnouCh-2" value="Usuario 2" style="shape=umlActor;verticalLabelPosition=bottom;verticalAlign=top;html=1;outlineConnect=0;fontSize=15;" parent="1" vertex="1">
                    <mxGeometry x="320" y="40" width="30" height="60" as="geometry"/>
                </mxCell>
                <mxCell id="yFSjDOY83YNJ4VVnouCh-24" style="edgeStyle=orthogonalEdgeStyle;rounded=0;orthogonalLoop=1;jettySize=auto;html=1;exitX=0.5;exitY=0;exitDx=0;exitDy=0;exitPerimeter=0;entryX=0.25;entryY=1;entryDx=0;entryDy=0;fontSize=15;" parent="1" source="yFSjDOY83YNJ4VVnouCh-3" target="yFSjDOY83YNJ4VVnouCh-7" edge="1">
                    <mxGeometry relative="1" as="geometry"/>
                </mxCell>
                <mxCell id="yFSjDOY83YNJ4VVnouCh-3" value="Disco 1" style="shape=cylinder3;whiteSpace=wrap;html=1;boundedLbl=1;backgroundOutline=1;size=15;fontSize=15;" parent="1" vertex="1">
                    <mxGeometry x="110" y="420" width="60" height="50" as="geometry"/>
                </mxCell>
                <mxCell id="yFSjDOY83YNJ4VVnouCh-23" style="edgeStyle=orthogonalEdgeStyle;rounded=0;orthogonalLoop=1;jettySize=auto;html=1;exitX=0.5;exitY=0;exitDx=0;exitDy=0;exitPerimeter=0;entryX=0.5;entryY=1;entryDx=0;entryDy=0;fontSize=15;" parent="1" source="yFSjDOY83YNJ4VVnouCh-4" target="yFSjDOY83YNJ4VVnouCh-7" edge="1">
                    <mxGeometry relative="1" as="geometry"/>
                </mxCell>
                <mxCell id="yFSjDOY83YNJ4VVnouCh-4" value="Disco 2" style="shape=cylinder3;whiteSpace=wrap;html=1;boundedLbl=1;backgroundOutline=1;size=15;fontSize=15;" parent="1" vertex="1">
                    <mxGeometry x="230" y="420" width="60" height="50" as="geometry"/>
                </mxCell>
                <mxCell id="yFSjDOY83YNJ4VVnouCh-20" style="edgeStyle=orthogonalEdgeStyle;rounded=0;orthogonalLoop=1;jettySize=auto;html=1;exitX=0.855;exitY=0;exitDx=0;exitDy=4.35;exitPerimeter=0;fontSize=15;" parent="1" source="yFSjDOY83YNJ4VVnouCh-5" target="yFSjDOY83YNJ4VVnouCh-9" edge="1">
                    <mxGeometry relative="1" as="geometry"/>
                </mxCell>
                <mxCell id="yFSjDOY83YNJ4VVnouCh-21" style="edgeStyle=orthogonalEdgeStyle;rounded=0;orthogonalLoop=1;jettySize=auto;html=1;exitX=0.5;exitY=0;exitDx=0;exitDy=0;exitPerimeter=0;entryX=0.5;entryY=1;entryDx=0;entryDy=0;fontSize=15;" parent="1" source="yFSjDOY83YNJ4VVnouCh-5" target="yFSjDOY83YNJ4VVnouCh-8" edge="1">
                    <mxGeometry relative="1" as="geometry"/>
                </mxCell>
                <mxCell id="yFSjDOY83YNJ4VVnouCh-5" value="Disco 3" style="shape=cylinder3;whiteSpace=wrap;html=1;boundedLbl=1;backgroundOutline=1;size=15;fontSize=15;" parent="1" vertex="1">
                    <mxGeometry x="360" y="420" width="60" height="50" as="geometry"/>
                </mxCell>
                <mxCell id="yFSjDOY83YNJ4VVnouCh-27" style="edgeStyle=orthogonalEdgeStyle;rounded=0;orthogonalLoop=1;jettySize=auto;html=1;exitX=0.75;exitY=0;exitDx=0;exitDy=0;entryX=0.5;entryY=1;entryDx=0;entryDy=0;fontSize=15;" parent="1" source="yFSjDOY83YNJ4VVnouCh-6" target="yFSjDOY83YNJ4VVnouCh-11" edge="1">
                    <mxGeometry relative="1" as="geometry"/>
                </mxCell>
                <mxCell id="yFSjDOY83YNJ4VVnouCh-6" value="Tabla 1" style="rounded=0;whiteSpace=wrap;html=1;" parent="1" vertex="1">
                    <mxGeometry x="30" y="290" width="120" height="60" as="geometry"/>
                </mxCell>
                <mxCell id="yFSjDOY83YNJ4VVnouCh-28" style="edgeStyle=orthogonalEdgeStyle;rounded=0;orthogonalLoop=1;jettySize=auto;html=1;exitX=0.5;exitY=0;exitDx=0;exitDy=0;entryX=0.5;entryY=1;entryDx=0;entryDy=0;fontSize=15;" parent="1" source="yFSjDOY83YNJ4VVnouCh-7" target="yFSjDOY83YNJ4VVnouCh-11" edge="1">
                    <mxGeometry relative="1" as="geometry">
                        <mxPoint x="140" y="220" as="targetPoint"/>
                    </mxGeometry>
                </mxCell>
                <mxCell id="yFSjDOY83YNJ4VVnouCh-7" value="Tabla 2" style="rounded=0;whiteSpace=wrap;html=1;fontSize=15;" parent="1" vertex="1">
                    <mxGeometry x="170" y="290" width="120" height="60" as="geometry"/>
                </mxCell>
                <mxCell id="yFSjDOY83YNJ4VVnouCh-29" style="edgeStyle=orthogonalEdgeStyle;rounded=0;orthogonalLoop=1;jettySize=auto;html=1;exitX=0.5;exitY=0;exitDx=0;exitDy=0;entryX=0.5;entryY=1;entryDx=0;entryDy=0;fontSize=15;" parent="1" source="yFSjDOY83YNJ4VVnouCh-8" target="yFSjDOY83YNJ4VVnouCh-12" edge="1">
                    <mxGeometry relative="1" as="geometry"/>
                </mxCell>
                <mxCell id="yFSjDOY83YNJ4VVnouCh-8" value="Tabla 3" style="rounded=0;whiteSpace=wrap;html=1;fontSize=15;" parent="1" vertex="1">
                    <mxGeometry x="310" y="290" width="120" height="60" as="geometry"/>
                </mxCell>
                <mxCell id="yFSjDOY83YNJ4VVnouCh-30" style="edgeStyle=orthogonalEdgeStyle;rounded=0;orthogonalLoop=1;jettySize=auto;html=1;exitX=0.5;exitY=0;exitDx=0;exitDy=0;fontSize=15;" parent="1" source="yFSjDOY83YNJ4VVnouCh-9" edge="1">
                    <mxGeometry relative="1" as="geometry">
                        <mxPoint x="350" y="220" as="targetPoint"/>
                    </mxGeometry>
                </mxCell>
                <mxCell id="yFSjDOY83YNJ4VVnouCh-9" value="Tabla 4" style="rounded=0;whiteSpace=wrap;html=1;" parent="1" vertex="1">
                    <mxGeometry x="450" y="290" width="120" height="60" as="geometry"/>
                </mxCell>
                <mxCell id="yFSjDOY83YNJ4VVnouCh-11" value="Vista 1" style="rounded=1;whiteSpace=wrap;html=1;fontSize=15;" parent="1" vertex="1">
                    <mxGeometry x="75" y="160" width="120" height="60" as="geometry"/>
                </mxCell>
                <mxCell id="yFSjDOY83YNJ4VVnouCh-12" value="Vista 2" style="rounded=1;whiteSpace=wrap;html=1;fontSize=15;" parent="1" vertex="1">
                    <mxGeometry x="290" y="160" width="120" height="60" as="geometry"/>
                </mxCell>
                <mxCell id="yFSjDOY83YNJ4VVnouCh-25" style="edgeStyle=orthogonalEdgeStyle;rounded=0;orthogonalLoop=1;jettySize=auto;html=1;exitX=0.145;exitY=0;exitDx=0;exitDy=4.35;exitPerimeter=0;entryX=0.417;entryY=1.033;entryDx=0;entryDy=0;entryPerimeter=0;fontSize=15;" parent="1" source="yFSjDOY83YNJ4VVnouCh-3" target="yFSjDOY83YNJ4VVnouCh-6" edge="1">
                    <mxGeometry relative="1" as="geometry"/>
                </mxCell>
                <mxCell id="yFSjDOY83YNJ4VVnouCh-35" value="" style="endArrow=none;dashed=1;html=1;rounded=0;" parent="1" edge="1">
                    <mxGeometry width="50" height="50" relative="1" as="geometry">
                        <mxPoint y="400" as="sourcePoint"/>
                        <mxPoint x="600" y="400" as="targetPoint"/>
                    </mxGeometry>
                </mxCell>
                <mxCell id="yFSjDOY83YNJ4VVnouCh-36" value="" style="endArrow=none;dashed=1;html=1;rounded=0;" parent="1" edge="1">
                    <mxGeometry width="50" height="50" relative="1" as="geometry">
                        <mxPoint y="240" as="sourcePoint"/>
                        <mxPoint x="600" y="240" as="targetPoint"/>
                    </mxGeometry>
                </mxCell>
                <mxCell id="yFSjDOY83YNJ4VVnouCh-37" value="" style="endArrow=none;dashed=1;html=1;rounded=0;" parent="1" edge="1">
                    <mxGeometry width="50" height="50" relative="1" as="geometry">
                        <mxPoint y="130" as="sourcePoint"/>
                        <mxPoint x="600" y="130" as="targetPoint"/>
                    </mxGeometry>
                </mxCell>
                <mxCell id="yFSjDOY83YNJ4VVnouCh-38" value="Nivel Interno" style="text;strokeColor=none;fillColor=none;html=1;fontSize=24;fontStyle=1;verticalAlign=middle;align=center;" parent="1" vertex="1">
                    <mxGeometry x="620" y="420" width="100" height="40" as="geometry"/>
                </mxCell>
                <mxCell id="yFSjDOY83YNJ4VVnouCh-39" value="Nivel Conceptual" style="text;strokeColor=none;fillColor=none;html=1;fontSize=24;fontStyle=1;verticalAlign=middle;align=center;" parent="1" vertex="1">
                    <mxGeometry x="646" y="300" width="100" height="40" as="geometry"/>
                </mxCell>
                <mxCell id="yFSjDOY83YNJ4VVnouCh-40" value="Nivel Externo&lt;br&gt;Vistas" style="text;strokeColor=none;fillColor=none;html=1;fontSize=24;fontStyle=1;verticalAlign=middle;align=center;" parent="1" vertex="1">
                    <mxGeometry x="646" y="160" width="100" height="40" as="geometry"/>
                </mxCell>
                <mxCell id="yFSjDOY83YNJ4VVnouCh-41" value="Nivel Físico" style="text;strokeColor=none;fillColor=none;html=1;fontSize=24;fontStyle=1;verticalAlign=middle;align=center;rotation=-90;" parent="1" vertex="1">
                    <mxGeometry x="-90" y="420" width="100" height="40" as="geometry"/>
                </mxCell>
                <mxCell id="yFSjDOY83YNJ4VVnouCh-43" value="Nivel Lógico" style="text;strokeColor=none;fillColor=none;html=1;fontSize=24;fontStyle=1;verticalAlign=middle;align=center;rotation=-90;" parent="1" vertex="1">
                    <mxGeometry x="-90" y="220" width="100" height="40" as="geometry"/>
                </mxCell>
            </root>
        </mxGraphModel>
    </diagram>
    <diagram id="LBBtButEah-JnWnz6ZTO" name="ER-Definitions">
        <mxGraphModel dx="1079" dy="761" grid="1" gridSize="10" guides="1" tooltips="1" connect="1" arrows="1" fold="1" page="1" pageScale="1" pageWidth="850" pageHeight="1100" math="0" shadow="0">
            <root>
                <mxCell id="0"/>
                <mxCell id="1" parent="0"/>
                <mxCell id="K6f9JKU2eiveUYaGlFts-4" value="Atributos" style="text;strokeColor=none;align=center;fillColor=none;html=1;verticalAlign=middle;whiteSpace=wrap;rounded=0;fontSize=18;" parent="1" vertex="1">
                    <mxGeometry x="160" y="45" width="60" height="30" as="geometry"/>
                </mxCell>
                <mxCell id="K6f9JKU2eiveUYaGlFts-8" value="Entidades" style="text;strokeColor=none;align=center;fillColor=none;html=1;verticalAlign=middle;whiteSpace=wrap;rounded=0;fontSize=18;" parent="1" vertex="1">
                    <mxGeometry x="470" y="145" width="60" height="30" as="geometry"/>
                </mxCell>
                <mxCell id="K6f9JKU2eiveUYaGlFts-9" value="Relaciones" style="text;strokeColor=none;align=center;fillColor=none;html=1;verticalAlign=middle;whiteSpace=wrap;rounded=0;fontSize=18;" parent="1" vertex="1">
                    <mxGeometry x="160" y="245" width="60" height="30" as="geometry"/>
                </mxCell>
                <mxCell id="K6f9JKU2eiveUYaGlFts-11" value="Unen atributos a entidades y estas a relaciones" style="text;strokeColor=none;align=center;fillColor=none;html=1;verticalAlign=middle;whiteSpace=wrap;rounded=0;fontSize=18;" parent="1" vertex="1">
                    <mxGeometry x="140" y="330" width="220" height="50" as="geometry"/>
                </mxCell>
                <mxCell id="K6f9JKU2eiveUYaGlFts-12" value="Attribute" style="ellipse;shape=doubleEllipse;margin=3;whiteSpace=wrap;html=1;align=center;fontSize=18;" parent="1" vertex="1">
                    <mxGeometry x="330" y="40" width="100" height="40" as="geometry"/>
                </mxCell>
                <mxCell id="K6f9JKU2eiveUYaGlFts-13" value="Attribute" style="ellipse;whiteSpace=wrap;html=1;align=center;fontSize=18;" parent="1" vertex="1">
                    <mxGeometry x="20" y="45" width="100" height="40" as="geometry"/>
                </mxCell>
                <mxCell id="K6f9JKU2eiveUYaGlFts-14" value="Entity" style="whiteSpace=wrap;html=1;align=center;fontSize=18;" parent="1" vertex="1">
                    <mxGeometry x="330" y="140" width="100" height="40" as="geometry"/>
                </mxCell>
                <mxCell id="K6f9JKU2eiveUYaGlFts-16" value="Relationship" style="shape=rhombus;perimeter=rhombusPerimeter;whiteSpace=wrap;html=1;align=center;fontSize=18;" parent="1" vertex="1">
                    <mxGeometry x="10" y="230" width="120" height="60" as="geometry"/>
                </mxCell>
                <mxCell id="K6f9JKU2eiveUYaGlFts-17" value="" style="endArrow=none;html=1;rounded=0;fontSize=18;" parent="1" edge="1">
                    <mxGeometry relative="1" as="geometry">
                        <mxPoint x="10" y="359.66" as="sourcePoint"/>
                        <mxPoint x="130" y="359.66" as="targetPoint"/>
                    </mxGeometry>
                </mxCell>
                <mxCell id="K6f9JKU2eiveUYaGlFts-18" value="Atributos multivalorados" style="text;strokeColor=none;align=center;fillColor=none;html=1;verticalAlign=middle;whiteSpace=wrap;rounded=0;fontSize=18;" parent="1" vertex="1">
                    <mxGeometry x="460" y="45" width="90" height="30" as="geometry"/>
                </mxCell>
                <mxCell id="K6f9JKU2eiveUYaGlFts-19" value="Attribute" style="ellipse;whiteSpace=wrap;html=1;align=center;dashed=1;fontSize=18;" parent="1" vertex="1">
                    <mxGeometry x="620" y="37.5" width="100" height="40" as="geometry"/>
                </mxCell>
                <mxCell id="K6f9JKU2eiveUYaGlFts-20" value="Atributos&lt;div style=&quot;font-size: 18px;&quot;&gt;derivados&lt;/div&gt;" style="text;strokeColor=none;align=center;fillColor=none;html=1;verticalAlign=middle;whiteSpace=wrap;rounded=0;fontSize=18;" parent="1" vertex="1">
                    <mxGeometry x="760" y="37.5" width="60" height="40" as="geometry"/>
                </mxCell>
                <mxCell id="K6f9JKU2eiveUYaGlFts-21" value="Entity" style="shape=ext;margin=3;double=1;whiteSpace=wrap;html=1;align=center;fontSize=18;" parent="1" vertex="1">
                    <mxGeometry x="620" y="140" width="100" height="40" as="geometry"/>
                </mxCell>
                <mxCell id="K6f9JKU2eiveUYaGlFts-22" value="Entidades debiles" style="text;strokeColor=none;align=center;fillColor=none;html=1;verticalAlign=middle;whiteSpace=wrap;rounded=0;fontSize=18;" parent="1" vertex="1">
                    <mxGeometry x="760" y="145" width="60" height="30" as="geometry"/>
                </mxCell>
                <mxCell id="K6f9JKU2eiveUYaGlFts-23" value="Attribute" style="ellipse;whiteSpace=wrap;html=1;align=center;fontStyle=4;fontSize=18;" parent="1" vertex="1">
                    <mxGeometry x="20" y="140" width="100" height="40" as="geometry"/>
                </mxCell>
                <mxCell id="K6f9JKU2eiveUYaGlFts-24" value="Atributo&lt;div style=&quot;font-size: 18px;&quot;&gt;Llave primaria&lt;/div&gt;" style="text;strokeColor=none;align=center;fillColor=none;html=1;verticalAlign=middle;whiteSpace=wrap;rounded=0;fontSize=18;" parent="1" vertex="1">
                    <mxGeometry x="140" y="147.5" width="120" height="25" as="geometry"/>
                </mxCell>
                <mxCell id="K6f9JKU2eiveUYaGlFts-25" value="" style="endArrow=none;html=1;rounded=0;dashed=1;dashPattern=1 2;fontSize=18;" parent="1" edge="1">
                    <mxGeometry relative="1" as="geometry">
                        <mxPoint x="320" y="265" as="sourcePoint"/>
                        <mxPoint x="440" y="265" as="targetPoint"/>
                    </mxGeometry>
                </mxCell>
                <mxCell id="K6f9JKU2eiveUYaGlFts-26" value="M" style="resizable=0;html=1;whiteSpace=wrap;align=left;verticalAlign=bottom;fontSize=18;" parent="K6f9JKU2eiveUYaGlFts-25" connectable="0" vertex="1">
                    <mxGeometry x="-1" relative="1" as="geometry"/>
                </mxCell>
                <mxCell id="K6f9JKU2eiveUYaGlFts-27" value="N" style="resizable=0;html=1;whiteSpace=wrap;align=right;verticalAlign=bottom;fontSize=18;" parent="K6f9JKU2eiveUYaGlFts-25" connectable="0" vertex="1">
                    <mxGeometry x="1" relative="1" as="geometry"/>
                </mxCell>
                <mxCell id="K6f9JKU2eiveUYaGlFts-28" value="Participacion Opcional" style="text;strokeColor=none;align=center;fillColor=none;html=1;verticalAlign=middle;whiteSpace=wrap;rounded=0;fontSize=18;" parent="1" vertex="1">
                    <mxGeometry x="460" y="245" width="110" height="30" as="geometry"/>
                </mxCell>
            </root>
        </mxGraphModel>
    </diagram>
    <diagram id="u54vP7OLzrXb80XGwnQl" name="ER-Model">
        <mxGraphModel dx="1929" dy="1861" grid="1" gridSize="10" guides="1" tooltips="1" connect="1" arrows="1" fold="1" page="1" pageScale="1" pageWidth="850" pageHeight="1100" math="0" shadow="0">
            <root>
                <mxCell id="0"/>
                <mxCell id="1" parent="0"/>
                <mxCell id="VV74Rz9AiRzFsxSOBywH-1" value="&lt;font style=&quot;font-size: 20px;&quot;&gt;isbn&lt;/font&gt;" style="ellipse;whiteSpace=wrap;html=1;align=center;fontStyle=4;fontSize=20;" parent="1" vertex="1">
                    <mxGeometry x="10" y="50" width="100" height="40" as="geometry"/>
                </mxCell>
                <mxCell id="VV74Rz9AiRzFsxSOBywH-2" value="título" style="ellipse;whiteSpace=wrap;html=1;align=center;fontSize=20;" parent="1" vertex="1">
                    <mxGeometry x="110" y="30" width="100" height="40" as="geometry"/>
                </mxCell>
                <mxCell id="70CGpfLjD5i0scW16shH-11" value="autor" style="ellipse;whiteSpace=wrap;html=1;align=center;fontSize=20;" parent="1" vertex="1">
                    <mxGeometry x="210" y="20" width="100" height="40" as="geometry"/>
                </mxCell>
                <mxCell id="70CGpfLjD5i0scW16shH-12" value="editorial" style="ellipse;whiteSpace=wrap;html=1;align=center;fontSize=20;" parent="1" vertex="1">
                    <mxGeometry x="310" y="30" width="100" height="40" as="geometry"/>
                </mxCell>
                <mxCell id="70CGpfLjD5i0scW16shH-13" value="año de publicación" style="ellipse;whiteSpace=wrap;html=1;align=center;fontSize=20;" parent="1" vertex="1">
                    <mxGeometry x="380" y="-40" width="120" height="60" as="geometry"/>
                </mxCell>
                <mxCell id="70CGpfLjD5i0scW16shH-14" value="género" style="ellipse;whiteSpace=wrap;html=1;align=center;fontSize=20;" parent="1" vertex="1">
                    <mxGeometry x="790" y="220" width="100" height="40" as="geometry"/>
                </mxCell>
                <mxCell id="70CGpfLjD5i0scW16shH-15" value="número de copias" style="ellipse;whiteSpace=wrap;html=1;align=center;fontSize=20;" parent="1" vertex="1">
                    <mxGeometry x="470" y="10" width="115" height="60" as="geometry"/>
                </mxCell>
                <mxCell id="70CGpfLjD5i0scW16shH-16" value="imagen de portada" style="ellipse;whiteSpace=wrap;html=1;align=center;fontSize=20;" parent="1" vertex="1">
                    <mxGeometry x="560" y="60" width="130" height="60" as="geometry"/>
                </mxCell>
                <mxCell id="70CGpfLjD5i0scW16shH-17" value="número de páginas" style="ellipse;whiteSpace=wrap;html=1;align=center;fontSize=20;" parent="1" vertex="1">
                    <mxGeometry x="660" y="120" width="120" height="50" as="geometry"/>
                </mxCell>
                <mxCell id="70CGpfLjD5i0scW16shH-18" value="idioma" style="ellipse;whiteSpace=wrap;html=1;align=center;fontSize=20;" parent="1" vertex="1">
                    <mxGeometry x="740" y="170" width="100" height="40" as="geometry"/>
                </mxCell>
                <mxCell id="70CGpfLjD5i0scW16shH-19" value="Libro" style="whiteSpace=wrap;html=1;align=center;fontSize=20;" parent="1" vertex="1">
                    <mxGeometry x="375" y="180" width="100" height="40" as="geometry"/>
                </mxCell>
                <mxCell id="7PIO8E8jeiu_FWQ1rNV--1" value="" style="endArrow=none;html=1;rounded=0;exitX=0.5;exitY=1;exitDx=0;exitDy=0;entryX=0;entryY=0.5;entryDx=0;entryDy=0;fontSize=20;" parent="1" source="VV74Rz9AiRzFsxSOBywH-1" target="70CGpfLjD5i0scW16shH-19" edge="1">
                    <mxGeometry relative="1" as="geometry">
                        <mxPoint x="280" y="250" as="sourcePoint"/>
                        <mxPoint x="440" y="250" as="targetPoint"/>
                    </mxGeometry>
                </mxCell>
                <mxCell id="7PIO8E8jeiu_FWQ1rNV--2" value="" style="endArrow=none;html=1;rounded=0;exitX=0.5;exitY=1;exitDx=0;exitDy=0;entryX=0;entryY=0;entryDx=0;entryDy=0;fontSize=20;" parent="1" source="VV74Rz9AiRzFsxSOBywH-2" target="70CGpfLjD5i0scW16shH-19" edge="1">
                    <mxGeometry relative="1" as="geometry">
                        <mxPoint x="280" y="250" as="sourcePoint"/>
                        <mxPoint x="440" y="250" as="targetPoint"/>
                    </mxGeometry>
                </mxCell>
                <mxCell id="7PIO8E8jeiu_FWQ1rNV--4" value="" style="endArrow=none;html=1;rounded=0;exitX=0.5;exitY=1;exitDx=0;exitDy=0;entryX=0.25;entryY=0;entryDx=0;entryDy=0;fontSize=20;" parent="1" source="70CGpfLjD5i0scW16shH-11" target="70CGpfLjD5i0scW16shH-19" edge="1">
                    <mxGeometry relative="1" as="geometry">
                        <mxPoint x="280" y="250" as="sourcePoint"/>
                        <mxPoint x="440" y="250" as="targetPoint"/>
                    </mxGeometry>
                </mxCell>
                <mxCell id="7PIO8E8jeiu_FWQ1rNV--5" value="" style="endArrow=none;html=1;rounded=0;exitX=0.5;exitY=1;exitDx=0;exitDy=0;entryX=0.5;entryY=0;entryDx=0;entryDy=0;fontSize=20;" parent="1" source="70CGpfLjD5i0scW16shH-12" target="70CGpfLjD5i0scW16shH-19" edge="1">
                    <mxGeometry relative="1" as="geometry">
                        <mxPoint x="280" y="250" as="sourcePoint"/>
                        <mxPoint x="440" y="250" as="targetPoint"/>
                    </mxGeometry>
                </mxCell>
                <mxCell id="7PIO8E8jeiu_FWQ1rNV--6" value="" style="endArrow=none;html=1;rounded=0;exitX=0.5;exitY=1;exitDx=0;exitDy=0;entryX=0.5;entryY=0;entryDx=0;entryDy=0;fontSize=20;" parent="1" source="70CGpfLjD5i0scW16shH-13" target="70CGpfLjD5i0scW16shH-19" edge="1">
                    <mxGeometry relative="1" as="geometry">
                        <mxPoint x="280" y="250" as="sourcePoint"/>
                        <mxPoint x="440" y="250" as="targetPoint"/>
                    </mxGeometry>
                </mxCell>
                <mxCell id="7PIO8E8jeiu_FWQ1rNV--7" value="" style="endArrow=none;html=1;rounded=0;entryX=0.5;entryY=1;entryDx=0;entryDy=0;exitX=0.75;exitY=0;exitDx=0;exitDy=0;fontSize=20;" parent="1" source="70CGpfLjD5i0scW16shH-19" target="70CGpfLjD5i0scW16shH-15" edge="1">
                    <mxGeometry relative="1" as="geometry">
                        <mxPoint x="280" y="250" as="sourcePoint"/>
                        <mxPoint x="440" y="250" as="targetPoint"/>
                    </mxGeometry>
                </mxCell>
                <mxCell id="7PIO8E8jeiu_FWQ1rNV--8" value="" style="endArrow=none;html=1;rounded=0;entryX=0;entryY=1;entryDx=0;entryDy=0;exitX=1;exitY=0;exitDx=0;exitDy=0;fontSize=20;" parent="1" source="70CGpfLjD5i0scW16shH-19" target="70CGpfLjD5i0scW16shH-16" edge="1">
                    <mxGeometry relative="1" as="geometry">
                        <mxPoint x="280" y="250" as="sourcePoint"/>
                        <mxPoint x="440" y="250" as="targetPoint"/>
                    </mxGeometry>
                </mxCell>
                <mxCell id="7PIO8E8jeiu_FWQ1rNV--11" value="" style="endArrow=none;html=1;rounded=0;exitX=0.101;exitY=0.887;exitDx=0;exitDy=0;exitPerimeter=0;entryX=1;entryY=0.5;entryDx=0;entryDy=0;fontSize=20;" parent="1" source="70CGpfLjD5i0scW16shH-17" target="70CGpfLjD5i0scW16shH-19" edge="1">
                    <mxGeometry relative="1" as="geometry">
                        <mxPoint x="280" y="250" as="sourcePoint"/>
                        <mxPoint x="440" y="250" as="targetPoint"/>
                    </mxGeometry>
                </mxCell>
                <mxCell id="7PIO8E8jeiu_FWQ1rNV--12" value="" style="endArrow=none;html=1;rounded=0;entryX=0;entryY=1;entryDx=0;entryDy=0;exitX=1;exitY=0.5;exitDx=0;exitDy=0;fontSize=20;" parent="1" source="70CGpfLjD5i0scW16shH-19" target="70CGpfLjD5i0scW16shH-18" edge="1">
                    <mxGeometry relative="1" as="geometry">
                        <mxPoint x="280" y="250" as="sourcePoint"/>
                        <mxPoint x="440" y="250" as="targetPoint"/>
                    </mxGeometry>
                </mxCell>
                <mxCell id="7PIO8E8jeiu_FWQ1rNV--13" value="" style="endArrow=none;html=1;rounded=0;entryX=0;entryY=0.5;entryDx=0;entryDy=0;exitX=1;exitY=0.5;exitDx=0;exitDy=0;fontSize=20;" parent="1" source="70CGpfLjD5i0scW16shH-19" target="70CGpfLjD5i0scW16shH-14" edge="1">
                    <mxGeometry relative="1" as="geometry">
                        <mxPoint x="280" y="250" as="sourcePoint"/>
                        <mxPoint x="440" y="250" as="targetPoint"/>
                    </mxGeometry>
                </mxCell>
                <mxCell id="FQ6Ar58SR9Vxu1dRVpxJ-75" style="edgeStyle=orthogonalEdgeStyle;rounded=0;orthogonalLoop=1;jettySize=auto;html=1;entryX=0.5;entryY=1;entryDx=0;entryDy=0;fontSize=20;" parent="1" source="FQ6Ar58SR9Vxu1dRVpxJ-1" target="FQ6Ar58SR9Vxu1dRVpxJ-74" edge="1">
                    <mxGeometry relative="1" as="geometry"/>
                </mxCell>
                <mxCell id="FQ6Ar58SR9Vxu1dRVpxJ-81" style="edgeStyle=orthogonalEdgeStyle;rounded=0;orthogonalLoop=1;jettySize=auto;html=1;fontSize=20;" parent="1" source="FQ6Ar58SR9Vxu1dRVpxJ-1" target="FQ6Ar58SR9Vxu1dRVpxJ-79" edge="1">
                    <mxGeometry relative="1" as="geometry"/>
                </mxCell>
                <mxCell id="FQ6Ar58SR9Vxu1dRVpxJ-1" value="Socio" style="whiteSpace=wrap;html=1;align=center;fontSize=20;" parent="1" vertex="1">
                    <mxGeometry x="250" y="430" width="100" height="40" as="geometry"/>
                </mxCell>
                <mxCell id="FQ6Ar58SR9Vxu1dRVpxJ-2" value="número de socio" style="ellipse;whiteSpace=wrap;html=1;align=center;fontStyle=4;fontSize=20;" parent="1" vertex="1">
                    <mxGeometry x="-70" y="390" width="190" height="40" as="geometry"/>
                </mxCell>
                <mxCell id="FQ6Ar58SR9Vxu1dRVpxJ-3" value="dirección" style="ellipse;whiteSpace=wrap;html=1;align=center;fontSize=20;" parent="1" vertex="1">
                    <mxGeometry x="-40" y="470" width="100" height="40" as="geometry"/>
                </mxCell>
                <mxCell id="FQ6Ar58SR9Vxu1dRVpxJ-9" value="nombre" style="ellipse;whiteSpace=wrap;html=1;align=center;fontSize=20;" parent="1" vertex="1">
                    <mxGeometry y="430" width="100" height="40" as="geometry"/>
                </mxCell>
                <mxCell id="FQ6Ar58SR9Vxu1dRVpxJ-11" value="correo electrónico" style="ellipse;whiteSpace=wrap;html=1;align=center;fontSize=20;" parent="1" vertex="1">
                    <mxGeometry x="-50" y="570" width="180" height="40" as="geometry"/>
                </mxCell>
                <mxCell id="FQ6Ar58SR9Vxu1dRVpxJ-12" value="tipo de membresía" style="ellipse;whiteSpace=wrap;html=1;align=center;fontSize=20;" parent="1" vertex="1">
                    <mxGeometry x="10" y="610" width="190" height="40" as="geometry"/>
                </mxCell>
                <mxCell id="FQ6Ar58SR9Vxu1dRVpxJ-20" value="" style="endArrow=none;html=1;rounded=0;exitX=1;exitY=0.5;exitDx=0;exitDy=0;entryX=0;entryY=0.5;entryDx=0;entryDy=0;fontSize=20;" parent="1" source="FQ6Ar58SR9Vxu1dRVpxJ-2" target="FQ6Ar58SR9Vxu1dRVpxJ-1" edge="1">
                    <mxGeometry relative="1" as="geometry">
                        <mxPoint x="260" y="440" as="sourcePoint"/>
                        <mxPoint x="420" y="440" as="targetPoint"/>
                    </mxGeometry>
                </mxCell>
                <mxCell id="FQ6Ar58SR9Vxu1dRVpxJ-21" value="" style="endArrow=none;html=1;rounded=0;exitX=1;exitY=0.5;exitDx=0;exitDy=0;entryX=0;entryY=0.5;entryDx=0;entryDy=0;fontSize=20;" parent="1" source="FQ6Ar58SR9Vxu1dRVpxJ-9" target="FQ6Ar58SR9Vxu1dRVpxJ-1" edge="1">
                    <mxGeometry relative="1" as="geometry">
                        <mxPoint x="60.00000000000546" y="495" as="sourcePoint"/>
                        <mxPoint x="380" y="485" as="targetPoint"/>
                    </mxGeometry>
                </mxCell>
                <mxCell id="FQ6Ar58SR9Vxu1dRVpxJ-22" value="número de teléfono" style="ellipse;shape=doubleEllipse;margin=3;whiteSpace=wrap;html=1;align=center;fontSize=20;" parent="1" vertex="1">
                    <mxGeometry x="-140" y="520" width="220" height="50" as="geometry"/>
                </mxCell>
                <mxCell id="FQ6Ar58SR9Vxu1dRVpxJ-23" value="H&lt;span style=&quot;background-color: initial; font-size: 20px;&quot;&gt;istorial de préstamos&lt;/span&gt;" style="shape=ext;margin=3;double=1;whiteSpace=wrap;html=1;align=center;fontSize=20;" parent="1" vertex="1">
                    <mxGeometry x="595" y="740" width="160" height="60" as="geometry"/>
                </mxCell>
                <mxCell id="FQ6Ar58SR9Vxu1dRVpxJ-25" value="id_&lt;span style=&quot;background-color: initial; font-size: 20px;&quot;&gt;historial_préstamos&lt;/span&gt;" style="ellipse;whiteSpace=wrap;html=1;align=center;fontStyle=4;fontSize=20;" parent="1" vertex="1">
                    <mxGeometry x="275" y="750" width="275" height="40" as="geometry"/>
                </mxCell>
                <mxCell id="FQ6Ar58SR9Vxu1dRVpxJ-26" value="isbn de libro prestado" style="ellipse;whiteSpace=wrap;html=1;align=center;fontSize=20;" parent="1" vertex="1">
                    <mxGeometry x="405" y="850" width="235" height="40" as="geometry"/>
                </mxCell>
                <mxCell id="FQ6Ar58SR9Vxu1dRVpxJ-28" value="fecha de devolución" style="ellipse;whiteSpace=wrap;html=1;align=center;fontSize=20;" parent="1" vertex="1">
                    <mxGeometry x="765" y="850" width="145" height="60" as="geometry"/>
                </mxCell>
                <mxCell id="FQ6Ar58SR9Vxu1dRVpxJ-29" value="fecha de préstamo" style="ellipse;whiteSpace=wrap;html=1;align=center;fontSize=20;" parent="1" vertex="1">
                    <mxGeometry x="665" y="910" width="125" height="60" as="geometry"/>
                </mxCell>
                <mxCell id="FQ6Ar58SR9Vxu1dRVpxJ-30" value="número de socio" style="ellipse;whiteSpace=wrap;html=1;align=center;fontSize=20;" parent="1" vertex="1">
                    <mxGeometry x="355" y="800" width="205" height="40" as="geometry"/>
                </mxCell>
                <mxCell id="FQ6Ar58SR9Vxu1dRVpxJ-31" value="temas de interés" style="ellipse;shape=doubleEllipse;margin=3;whiteSpace=wrap;html=1;align=center;fontSize=20;" parent="1" vertex="1">
                    <mxGeometry x="180" y="640" width="180" height="40" as="geometry"/>
                </mxCell>
                <mxCell id="FQ6Ar58SR9Vxu1dRVpxJ-32" value="" style="endArrow=none;html=1;rounded=0;entryX=0;entryY=1;entryDx=0;entryDy=0;exitX=1;exitY=0.5;exitDx=0;exitDy=0;fontSize=20;" parent="1" source="FQ6Ar58SR9Vxu1dRVpxJ-3" target="FQ6Ar58SR9Vxu1dRVpxJ-1" edge="1">
                    <mxGeometry relative="1" as="geometry">
                        <mxPoint x="200" y="469.16999999999996" as="sourcePoint"/>
                        <mxPoint x="360" y="469.16999999999996" as="targetPoint"/>
                    </mxGeometry>
                </mxCell>
                <mxCell id="FQ6Ar58SR9Vxu1dRVpxJ-33" value="" style="endArrow=none;html=1;rounded=0;exitX=1;exitY=0.5;exitDx=0;exitDy=0;entryX=0;entryY=1;entryDx=0;entryDy=0;fontSize=20;" parent="1" source="FQ6Ar58SR9Vxu1dRVpxJ-22" target="FQ6Ar58SR9Vxu1dRVpxJ-1" edge="1">
                    <mxGeometry relative="1" as="geometry">
                        <mxPoint x="170" y="510" as="sourcePoint"/>
                        <mxPoint x="330" y="510" as="targetPoint"/>
                    </mxGeometry>
                </mxCell>
                <mxCell id="FQ6Ar58SR9Vxu1dRVpxJ-34" value="" style="endArrow=none;html=1;rounded=0;exitX=1;exitY=0;exitDx=0;exitDy=0;entryX=0.25;entryY=1;entryDx=0;entryDy=0;fontSize=20;" parent="1" source="FQ6Ar58SR9Vxu1dRVpxJ-11" target="FQ6Ar58SR9Vxu1dRVpxJ-1" edge="1">
                    <mxGeometry relative="1" as="geometry">
                        <mxPoint x="260" y="510" as="sourcePoint"/>
                        <mxPoint x="420" y="510" as="targetPoint"/>
                    </mxGeometry>
                </mxCell>
                <mxCell id="FQ6Ar58SR9Vxu1dRVpxJ-35" value="" style="endArrow=none;html=1;rounded=0;exitX=1;exitY=0;exitDx=0;exitDy=0;entryX=0.25;entryY=1;entryDx=0;entryDy=0;fontSize=20;" parent="1" source="FQ6Ar58SR9Vxu1dRVpxJ-12" target="FQ6Ar58SR9Vxu1dRVpxJ-1" edge="1">
                    <mxGeometry relative="1" as="geometry">
                        <mxPoint x="330" y="540" as="sourcePoint"/>
                        <mxPoint x="490" y="540" as="targetPoint"/>
                    </mxGeometry>
                </mxCell>
                <mxCell id="FQ6Ar58SR9Vxu1dRVpxJ-36" value="" style="endArrow=none;html=1;rounded=0;exitX=0.5;exitY=0;exitDx=0;exitDy=0;entryX=0.5;entryY=1;entryDx=0;entryDy=0;fontSize=20;" parent="1" source="FQ6Ar58SR9Vxu1dRVpxJ-31" target="FQ6Ar58SR9Vxu1dRVpxJ-1" edge="1">
                    <mxGeometry relative="1" as="geometry">
                        <mxPoint x="300" y="540" as="sourcePoint"/>
                        <mxPoint x="460" y="540" as="targetPoint"/>
                    </mxGeometry>
                </mxCell>
                <mxCell id="FQ6Ar58SR9Vxu1dRVpxJ-37" value="" style="endArrow=none;html=1;rounded=0;exitX=1;exitY=0.5;exitDx=0;exitDy=0;entryX=0;entryY=0.75;entryDx=0;entryDy=0;fontSize=20;" parent="1" source="FQ6Ar58SR9Vxu1dRVpxJ-25" target="FQ6Ar58SR9Vxu1dRVpxJ-23" edge="1">
                    <mxGeometry relative="1" as="geometry">
                        <mxPoint x="470" y="710" as="sourcePoint"/>
                        <mxPoint x="630" y="710" as="targetPoint"/>
                    </mxGeometry>
                </mxCell>
                <mxCell id="FQ6Ar58SR9Vxu1dRVpxJ-38" value="" style="endArrow=none;html=1;rounded=0;exitX=1;exitY=0;exitDx=0;exitDy=0;entryX=0;entryY=1;entryDx=0;entryDy=0;fontSize=20;" parent="1" source="FQ6Ar58SR9Vxu1dRVpxJ-30" target="FQ6Ar58SR9Vxu1dRVpxJ-23" edge="1">
                    <mxGeometry relative="1" as="geometry">
                        <mxPoint x="580" y="680" as="sourcePoint"/>
                        <mxPoint x="740" y="680" as="targetPoint"/>
                    </mxGeometry>
                </mxCell>
                <mxCell id="FQ6Ar58SR9Vxu1dRVpxJ-39" value="" style="endArrow=none;html=1;rounded=0;entryX=0.25;entryY=1;entryDx=0;entryDy=0;exitX=0.5;exitY=0;exitDx=0;exitDy=0;fontSize=20;" parent="1" source="FQ6Ar58SR9Vxu1dRVpxJ-26" target="FQ6Ar58SR9Vxu1dRVpxJ-23" edge="1">
                    <mxGeometry relative="1" as="geometry">
                        <mxPoint x="250" y="900" as="sourcePoint"/>
                        <mxPoint x="410" y="900" as="targetPoint"/>
                    </mxGeometry>
                </mxCell>
                <mxCell id="FQ6Ar58SR9Vxu1dRVpxJ-40" value="" style="endArrow=none;html=1;rounded=0;entryX=0.5;entryY=1;entryDx=0;entryDy=0;exitX=0.5;exitY=0;exitDx=0;exitDy=0;fontSize=20;" parent="1" source="FQ6Ar58SR9Vxu1dRVpxJ-29" target="FQ6Ar58SR9Vxu1dRVpxJ-23" edge="1">
                    <mxGeometry relative="1" as="geometry">
                        <mxPoint x="390" y="890" as="sourcePoint"/>
                        <mxPoint x="550" y="890" as="targetPoint"/>
                    </mxGeometry>
                </mxCell>
                <mxCell id="FQ6Ar58SR9Vxu1dRVpxJ-41" value="" style="endArrow=none;html=1;rounded=0;entryX=0.75;entryY=1;entryDx=0;entryDy=0;exitX=0;exitY=0;exitDx=0;exitDy=0;fontSize=20;" parent="1" source="FQ6Ar58SR9Vxu1dRVpxJ-28" target="FQ6Ar58SR9Vxu1dRVpxJ-23" edge="1">
                    <mxGeometry relative="1" as="geometry">
                        <mxPoint x="460" y="900" as="sourcePoint"/>
                        <mxPoint x="620" y="900" as="targetPoint"/>
                    </mxGeometry>
                </mxCell>
                <mxCell id="FQ6Ar58SR9Vxu1dRVpxJ-49" value="monto de cargo" style="ellipse;whiteSpace=wrap;html=1;align=center;fontSize=20;" parent="1" vertex="1">
                    <mxGeometry x="790" y="800" width="185" height="40" as="geometry"/>
                </mxCell>
                <mxCell id="FQ6Ar58SR9Vxu1dRVpxJ-50" value="razón de multa" style="ellipse;whiteSpace=wrap;html=1;align=center;fontSize=20;" parent="1" vertex="1">
                    <mxGeometry x="795" y="750" width="175" height="40" as="geometry"/>
                </mxCell>
                <mxCell id="FQ6Ar58SR9Vxu1dRVpxJ-51" value="" style="endArrow=none;html=1;rounded=0;entryX=0;entryY=0.5;entryDx=0;entryDy=0;exitX=1;exitY=0.5;exitDx=0;exitDy=0;fontSize=20;" parent="1" source="FQ6Ar58SR9Vxu1dRVpxJ-23" target="FQ6Ar58SR9Vxu1dRVpxJ-50" edge="1">
                    <mxGeometry relative="1" as="geometry">
                        <mxPoint x="530" y="590" as="sourcePoint"/>
                        <mxPoint x="690" y="590" as="targetPoint"/>
                    </mxGeometry>
                </mxCell>
                <mxCell id="FQ6Ar58SR9Vxu1dRVpxJ-52" value="" style="endArrow=none;html=1;rounded=0;entryX=0;entryY=0.5;entryDx=0;entryDy=0;exitX=1;exitY=0.75;exitDx=0;exitDy=0;fontSize=20;" parent="1" source="FQ6Ar58SR9Vxu1dRVpxJ-23" target="FQ6Ar58SR9Vxu1dRVpxJ-49" edge="1">
                    <mxGeometry relative="1" as="geometry">
                        <mxPoint x="760" y="620" as="sourcePoint"/>
                        <mxPoint x="920" y="620" as="targetPoint"/>
                    </mxGeometry>
                </mxCell>
                <mxCell id="FQ6Ar58SR9Vxu1dRVpxJ-77" style="edgeStyle=orthogonalEdgeStyle;rounded=0;orthogonalLoop=1;jettySize=auto;html=1;entryX=0.5;entryY=1;entryDx=0;entryDy=0;fontSize=20;" parent="1" source="FQ6Ar58SR9Vxu1dRVpxJ-54" target="FQ6Ar58SR9Vxu1dRVpxJ-73" edge="1">
                    <mxGeometry relative="1" as="geometry"/>
                </mxCell>
                <mxCell id="FQ6Ar58SR9Vxu1dRVpxJ-84" style="edgeStyle=orthogonalEdgeStyle;rounded=0;orthogonalLoop=1;jettySize=auto;html=1;entryX=1;entryY=0.5;entryDx=0;entryDy=0;fontSize=20;" parent="1" source="FQ6Ar58SR9Vxu1dRVpxJ-54" target="FQ6Ar58SR9Vxu1dRVpxJ-83" edge="1">
                    <mxGeometry relative="1" as="geometry"/>
                </mxCell>
                <mxCell id="FQ6Ar58SR9Vxu1dRVpxJ-54" value="Usuario" style="whiteSpace=wrap;html=1;align=center;fontSize=20;" parent="1" vertex="1">
                    <mxGeometry x="765" y="380" width="100" height="40" as="geometry"/>
                </mxCell>
                <mxCell id="FQ6Ar58SR9Vxu1dRVpxJ-55" value="id_usuario" style="ellipse;whiteSpace=wrap;html=1;align=center;fontStyle=4;fontSize=20;" parent="1" vertex="1">
                    <mxGeometry x="717.5" y="580" width="190" height="40" as="geometry"/>
                </mxCell>
                <mxCell id="FQ6Ar58SR9Vxu1dRVpxJ-56" value="dirección" style="ellipse;whiteSpace=wrap;html=1;align=center;fontSize=20;" parent="1" vertex="1">
                    <mxGeometry x="920" y="510" width="100" height="40" as="geometry"/>
                </mxCell>
                <mxCell id="FQ6Ar58SR9Vxu1dRVpxJ-57" value="nombre" style="ellipse;whiteSpace=wrap;html=1;align=center;fontSize=20;" parent="1" vertex="1">
                    <mxGeometry x="840" y="540" width="100" height="40" as="geometry"/>
                </mxCell>
                <mxCell id="FQ6Ar58SR9Vxu1dRVpxJ-58" value="correo electrónico" style="ellipse;whiteSpace=wrap;html=1;align=center;fontSize=20;" parent="1" vertex="1">
                    <mxGeometry x="960" y="390" width="180" height="40" as="geometry"/>
                </mxCell>
                <mxCell id="FQ6Ar58SR9Vxu1dRVpxJ-60" value="" style="endArrow=none;html=1;rounded=0;exitX=0.5;exitY=0;exitDx=0;exitDy=0;fontSize=20;entryX=0.25;entryY=1;entryDx=0;entryDy=0;" parent="1" source="FQ6Ar58SR9Vxu1dRVpxJ-55" target="FQ6Ar58SR9Vxu1dRVpxJ-54" edge="1">
                    <mxGeometry relative="1" as="geometry">
                        <mxPoint x="775" y="390" as="sourcePoint"/>
                        <mxPoint x="935" y="390" as="targetPoint"/>
                    </mxGeometry>
                </mxCell>
                <mxCell id="FQ6Ar58SR9Vxu1dRVpxJ-61" value="" style="endArrow=none;html=1;rounded=0;fontSize=20;entryX=0.25;entryY=1;entryDx=0;entryDy=0;" parent="1" source="FQ6Ar58SR9Vxu1dRVpxJ-57" target="FQ6Ar58SR9Vxu1dRVpxJ-54" edge="1">
                    <mxGeometry relative="1" as="geometry">
                        <mxPoint x="575.0000000000055" y="445" as="sourcePoint"/>
                        <mxPoint x="800" y="450" as="targetPoint"/>
                    </mxGeometry>
                </mxCell>
                <mxCell id="FQ6Ar58SR9Vxu1dRVpxJ-64" value="" style="endArrow=none;html=1;rounded=0;entryX=0.25;entryY=1;entryDx=0;entryDy=0;exitX=0.5;exitY=0;exitDx=0;exitDy=0;fontSize=20;" parent="1" source="FQ6Ar58SR9Vxu1dRVpxJ-56" target="FQ6Ar58SR9Vxu1dRVpxJ-54" edge="1">
                    <mxGeometry relative="1" as="geometry">
                        <mxPoint x="715" y="419.16999999999996" as="sourcePoint"/>
                        <mxPoint x="875" y="419.16999999999996" as="targetPoint"/>
                    </mxGeometry>
                </mxCell>
                <mxCell id="FQ6Ar58SR9Vxu1dRVpxJ-65" value="" style="endArrow=none;html=1;rounded=0;exitX=0.5;exitY=0;exitDx=0;exitDy=0;entryX=0.5;entryY=1;entryDx=0;entryDy=0;fontSize=20;" parent="1" source="FQ6Ar58SR9Vxu1dRVpxJ-69" target="FQ6Ar58SR9Vxu1dRVpxJ-54" edge="1">
                    <mxGeometry relative="1" as="geometry">
                        <mxPoint x="595" y="495" as="sourcePoint"/>
                        <mxPoint x="845" y="460" as="targetPoint"/>
                    </mxGeometry>
                </mxCell>
                <mxCell id="FQ6Ar58SR9Vxu1dRVpxJ-66" value="" style="endArrow=none;html=1;rounded=0;entryX=0.75;entryY=1;entryDx=0;entryDy=0;fontSize=20;" parent="1" source="FQ6Ar58SR9Vxu1dRVpxJ-58" target="FQ6Ar58SR9Vxu1dRVpxJ-54" edge="1">
                    <mxGeometry relative="1" as="geometry">
                        <mxPoint x="775" y="460" as="sourcePoint"/>
                        <mxPoint x="935" y="460" as="targetPoint"/>
                    </mxGeometry>
                </mxCell>
                <mxCell id="FQ6Ar58SR9Vxu1dRVpxJ-67" value="" style="endArrow=none;html=1;rounded=0;exitX=0.5;exitY=0;exitDx=0;exitDy=0;entryX=1;entryY=1;entryDx=0;entryDy=0;fontSize=20;" parent="1" source="FQ6Ar58SR9Vxu1dRVpxJ-70" target="FQ6Ar58SR9Vxu1dRVpxJ-54" edge="1">
                    <mxGeometry relative="1" as="geometry">
                        <mxPoint x="687.175144212722" y="565.8578643762689" as="sourcePoint"/>
                        <mxPoint x="1005" y="490" as="targetPoint"/>
                    </mxGeometry>
                </mxCell>
                <mxCell id="FQ6Ar58SR9Vxu1dRVpxJ-69" value="número de teléfono" style="ellipse;whiteSpace=wrap;html=1;align=center;fontSize=20;" parent="1" vertex="1">
                    <mxGeometry x="940" y="450" width="170" height="50" as="geometry"/>
                </mxCell>
                <mxCell id="FQ6Ar58SR9Vxu1dRVpxJ-70" value="Rol/Permisos" style="ellipse;whiteSpace=wrap;html=1;align=center;fontSize=20;" parent="1" vertex="1">
                    <mxGeometry x="960" y="340" width="180" height="40" as="geometry"/>
                </mxCell>
                <mxCell id="FQ6Ar58SR9Vxu1dRVpxJ-71" value="id_usuario" style="ellipse;whiteSpace=wrap;html=1;align=center;fontSize=20;" parent="1" vertex="1">
                    <mxGeometry x="540" y="900" width="125" height="40" as="geometry"/>
                </mxCell>
                <mxCell id="FQ6Ar58SR9Vxu1dRVpxJ-72" value="" style="endArrow=none;html=1;rounded=0;exitX=0.5;exitY=1;exitDx=0;exitDy=0;entryX=1;entryY=0;entryDx=0;entryDy=0;fontSize=20;" parent="1" source="FQ6Ar58SR9Vxu1dRVpxJ-23" target="FQ6Ar58SR9Vxu1dRVpxJ-71" edge="1">
                    <mxGeometry relative="1" as="geometry">
                        <mxPoint x="605" y="1030" as="sourcePoint"/>
                        <mxPoint x="765" y="1030" as="targetPoint"/>
                    </mxGeometry>
                </mxCell>
                <mxCell id="FQ6Ar58SR9Vxu1dRVpxJ-78" style="edgeStyle=orthogonalEdgeStyle;rounded=0;orthogonalLoop=1;jettySize=auto;html=1;entryX=0.75;entryY=1;entryDx=0;entryDy=0;fontSize=20;" parent="1" source="FQ6Ar58SR9Vxu1dRVpxJ-73" target="70CGpfLjD5i0scW16shH-19" edge="1">
                    <mxGeometry relative="1" as="geometry"/>
                </mxCell>
                <mxCell id="FQ6Ar58SR9Vxu1dRVpxJ-73" value="presta/&lt;div style=&quot;font-size: 20px;&quot;&gt;administra&lt;/div&gt;" style="shape=rhombus;perimeter=rhombusPerimeter;whiteSpace=wrap;html=1;align=center;fontSize=20;" parent="1" vertex="1">
                    <mxGeometry x="570" y="260" width="160" height="100" as="geometry"/>
                </mxCell>
                <mxCell id="FQ6Ar58SR9Vxu1dRVpxJ-76" style="edgeStyle=orthogonalEdgeStyle;rounded=0;orthogonalLoop=1;jettySize=auto;html=1;entryX=0.25;entryY=1;entryDx=0;entryDy=0;fontSize=20;" parent="1" source="FQ6Ar58SR9Vxu1dRVpxJ-74" target="70CGpfLjD5i0scW16shH-19" edge="1">
                    <mxGeometry relative="1" as="geometry"/>
                </mxCell>
                <mxCell id="FQ6Ar58SR9Vxu1dRVpxJ-74" value="lee/&lt;div style=&quot;font-size: 20px;&quot;&gt;pide prestado&lt;/div&gt;" style="shape=rhombus;perimeter=rhombusPerimeter;whiteSpace=wrap;html=1;align=center;fontSize=20;" parent="1" vertex="1">
                    <mxGeometry x="220" y="270" width="160" height="110" as="geometry"/>
                </mxCell>
                <mxCell id="FQ6Ar58SR9Vxu1dRVpxJ-82" style="edgeStyle=orthogonalEdgeStyle;rounded=0;orthogonalLoop=1;jettySize=auto;html=1;entryX=0.25;entryY=0;entryDx=0;entryDy=0;fontSize=20;" parent="1" source="FQ6Ar58SR9Vxu1dRVpxJ-79" target="FQ6Ar58SR9Vxu1dRVpxJ-23" edge="1">
                    <mxGeometry relative="1" as="geometry"/>
                </mxCell>
                <mxCell id="FQ6Ar58SR9Vxu1dRVpxJ-79" value="tiene" style="shape=rhombus;perimeter=rhombusPerimeter;whiteSpace=wrap;html=1;align=center;fontSize=20;" parent="1" vertex="1">
                    <mxGeometry x="410" y="570" width="120" height="60" as="geometry"/>
                </mxCell>
                <mxCell id="FQ6Ar58SR9Vxu1dRVpxJ-85" style="edgeStyle=orthogonalEdgeStyle;rounded=0;orthogonalLoop=1;jettySize=auto;html=1;fontSize=20;" parent="1" source="FQ6Ar58SR9Vxu1dRVpxJ-83" target="FQ6Ar58SR9Vxu1dRVpxJ-1" edge="1">
                    <mxGeometry relative="1" as="geometry"/>
                </mxCell>
                <mxCell id="FQ6Ar58SR9Vxu1dRVpxJ-83" value="administra" style="shape=rhombus;perimeter=rhombusPerimeter;whiteSpace=wrap;html=1;align=center;fontSize=20;" parent="1" vertex="1">
                    <mxGeometry x="500" y="415" width="135" height="70" as="geometry"/>
                </mxCell>
            </root>
        </mxGraphModel>
    </diagram>
    <diagram id="R2lEEEUBdFMjLlhIrx00" name="R-Model">
        <mxGraphModel dx="1079" dy="761" grid="1" gridSize="10" guides="1" tooltips="1" connect="1" arrows="1" fold="1" page="1" pageScale="1" pageWidth="850" pageHeight="1100" math="0" shadow="0" extFonts="Permanent Marker^https://fonts.googleapis.com/css?family=Permanent+Marker">
            <root>
                <mxCell id="0"/>
                <mxCell id="1" parent="0"/>
                <mxCell id="C-vyLk0tnHw3VtMMgP7b-1" value="" style="edgeStyle=entityRelationEdgeStyle;endArrow=ERzeroToMany;startArrow=ERone;endFill=1;startFill=0;" parent="1" source="C-vyLk0tnHw3VtMMgP7b-24" target="C-vyLk0tnHw3VtMMgP7b-6" edge="1">
                    <mxGeometry width="100" height="100" relative="1" as="geometry">
                        <mxPoint x="340" y="720" as="sourcePoint"/>
                        <mxPoint x="440" y="620" as="targetPoint"/>
                    </mxGeometry>
                </mxCell>
                <mxCell id="C-vyLk0tnHw3VtMMgP7b-12" value="" style="edgeStyle=entityRelationEdgeStyle;endArrow=ERzeroToMany;startArrow=ERone;endFill=1;startFill=0;" parent="1" source="C-vyLk0tnHw3VtMMgP7b-3" target="C-vyLk0tnHw3VtMMgP7b-17" edge="1">
                    <mxGeometry width="100" height="100" relative="1" as="geometry">
                        <mxPoint x="400" y="180" as="sourcePoint"/>
                        <mxPoint x="460" y="205" as="targetPoint"/>
                    </mxGeometry>
                </mxCell>
                <mxCell id="C-vyLk0tnHw3VtMMgP7b-2" value="Orders" style="shape=table;startSize=30;container=1;collapsible=1;childLayout=tableLayout;fixedRows=1;rowLines=0;fontStyle=1;align=center;resizeLast=1;" parent="1" vertex="1">
                    <mxGeometry x="450" y="120" width="250" height="130" as="geometry"/>
                </mxCell>
                <mxCell id="C-vyLk0tnHw3VtMMgP7b-3" value="" style="shape=partialRectangle;collapsible=0;dropTarget=0;pointerEvents=0;fillColor=none;points=[[0,0.5],[1,0.5]];portConstraint=eastwest;top=0;left=0;right=0;bottom=1;" parent="C-vyLk0tnHw3VtMMgP7b-2" vertex="1">
                    <mxGeometry y="30" width="250" height="30" as="geometry"/>
                </mxCell>
                <mxCell id="C-vyLk0tnHw3VtMMgP7b-4" value="PK" style="shape=partialRectangle;overflow=hidden;connectable=0;fillColor=none;top=0;left=0;bottom=0;right=0;fontStyle=1;" parent="C-vyLk0tnHw3VtMMgP7b-3" vertex="1">
                    <mxGeometry width="30" height="30" as="geometry"/>
                </mxCell>
                <mxCell id="C-vyLk0tnHw3VtMMgP7b-5" value="order_id int NOT NULL " style="shape=partialRectangle;overflow=hidden;connectable=0;fillColor=none;top=0;left=0;bottom=0;right=0;align=left;spacingLeft=6;fontStyle=5;" parent="C-vyLk0tnHw3VtMMgP7b-3" vertex="1">
                    <mxGeometry x="30" width="220" height="30" as="geometry"/>
                </mxCell>
                <mxCell id="C-vyLk0tnHw3VtMMgP7b-6" value="" style="shape=partialRectangle;collapsible=0;dropTarget=0;pointerEvents=0;fillColor=none;points=[[0,0.5],[1,0.5]];portConstraint=eastwest;top=0;left=0;right=0;bottom=0;" parent="C-vyLk0tnHw3VtMMgP7b-2" vertex="1">
                    <mxGeometry y="60" width="250" height="30" as="geometry"/>
                </mxCell>
                <mxCell id="C-vyLk0tnHw3VtMMgP7b-7" value="FK1" style="shape=partialRectangle;overflow=hidden;connectable=0;fillColor=none;top=0;left=0;bottom=0;right=0;" parent="C-vyLk0tnHw3VtMMgP7b-6" vertex="1">
                    <mxGeometry width="30" height="30" as="geometry"/>
                </mxCell>
                <mxCell id="C-vyLk0tnHw3VtMMgP7b-8" value="customer_id int NOT NULL" style="shape=partialRectangle;overflow=hidden;connectable=0;fillColor=none;top=0;left=0;bottom=0;right=0;align=left;spacingLeft=6;" parent="C-vyLk0tnHw3VtMMgP7b-6" vertex="1">
                    <mxGeometry x="30" width="220" height="30" as="geometry"/>
                </mxCell>
                <mxCell id="C-vyLk0tnHw3VtMMgP7b-9" value="" style="shape=partialRectangle;collapsible=0;dropTarget=0;pointerEvents=0;fillColor=none;points=[[0,0.5],[1,0.5]];portConstraint=eastwest;top=0;left=0;right=0;bottom=0;" parent="C-vyLk0tnHw3VtMMgP7b-2" vertex="1">
                    <mxGeometry y="90" width="250" height="30" as="geometry"/>
                </mxCell>
                <mxCell id="C-vyLk0tnHw3VtMMgP7b-10" value="" style="shape=partialRectangle;overflow=hidden;connectable=0;fillColor=none;top=0;left=0;bottom=0;right=0;" parent="C-vyLk0tnHw3VtMMgP7b-9" vertex="1">
                    <mxGeometry width="30" height="30" as="geometry"/>
                </mxCell>
                <mxCell id="C-vyLk0tnHw3VtMMgP7b-11" value="order_date date NOT NULL" style="shape=partialRectangle;overflow=hidden;connectable=0;fillColor=none;top=0;left=0;bottom=0;right=0;align=left;spacingLeft=6;" parent="C-vyLk0tnHw3VtMMgP7b-9" vertex="1">
                    <mxGeometry x="30" width="220" height="30" as="geometry"/>
                </mxCell>
                <mxCell id="C-vyLk0tnHw3VtMMgP7b-13" value="Shipments" style="shape=table;startSize=30;container=1;collapsible=1;childLayout=tableLayout;fixedRows=1;rowLines=0;fontStyle=1;align=center;resizeLast=1;" parent="1" vertex="1">
                    <mxGeometry x="450" y="280" width="250" height="130" as="geometry"/>
                </mxCell>
                <mxCell id="C-vyLk0tnHw3VtMMgP7b-14" value="" style="shape=partialRectangle;collapsible=0;dropTarget=0;pointerEvents=0;fillColor=none;points=[[0,0.5],[1,0.5]];portConstraint=eastwest;top=0;left=0;right=0;bottom=1;" parent="C-vyLk0tnHw3VtMMgP7b-13" vertex="1">
                    <mxGeometry y="30" width="250" height="30" as="geometry"/>
                </mxCell>
                <mxCell id="C-vyLk0tnHw3VtMMgP7b-15" value="PK" style="shape=partialRectangle;overflow=hidden;connectable=0;fillColor=none;top=0;left=0;bottom=0;right=0;fontStyle=1;" parent="C-vyLk0tnHw3VtMMgP7b-14" vertex="1">
                    <mxGeometry width="30" height="30" as="geometry"/>
                </mxCell>
                <mxCell id="C-vyLk0tnHw3VtMMgP7b-16" value="shipment_id int NOT NULL " style="shape=partialRectangle;overflow=hidden;connectable=0;fillColor=none;top=0;left=0;bottom=0;right=0;align=left;spacingLeft=6;fontStyle=5;" parent="C-vyLk0tnHw3VtMMgP7b-14" vertex="1">
                    <mxGeometry x="30" width="220" height="30" as="geometry"/>
                </mxCell>
                <mxCell id="C-vyLk0tnHw3VtMMgP7b-17" value="" style="shape=partialRectangle;collapsible=0;dropTarget=0;pointerEvents=0;fillColor=none;points=[[0,0.5],[1,0.5]];portConstraint=eastwest;top=0;left=0;right=0;bottom=0;" parent="C-vyLk0tnHw3VtMMgP7b-13" vertex="1">
                    <mxGeometry y="60" width="250" height="30" as="geometry"/>
                </mxCell>
                <mxCell id="C-vyLk0tnHw3VtMMgP7b-18" value="FK1" style="shape=partialRectangle;overflow=hidden;connectable=0;fillColor=none;top=0;left=0;bottom=0;right=0;" parent="C-vyLk0tnHw3VtMMgP7b-17" vertex="1">
                    <mxGeometry width="30" height="30" as="geometry"/>
                </mxCell>
                <mxCell id="C-vyLk0tnHw3VtMMgP7b-19" value="order_id int NOT NULL" style="shape=partialRectangle;overflow=hidden;connectable=0;fillColor=none;top=0;left=0;bottom=0;right=0;align=left;spacingLeft=6;" parent="C-vyLk0tnHw3VtMMgP7b-17" vertex="1">
                    <mxGeometry x="30" width="220" height="30" as="geometry"/>
                </mxCell>
                <mxCell id="C-vyLk0tnHw3VtMMgP7b-20" value="" style="shape=partialRectangle;collapsible=0;dropTarget=0;pointerEvents=0;fillColor=none;points=[[0,0.5],[1,0.5]];portConstraint=eastwest;top=0;left=0;right=0;bottom=0;" parent="C-vyLk0tnHw3VtMMgP7b-13" vertex="1">
                    <mxGeometry y="90" width="250" height="30" as="geometry"/>
                </mxCell>
                <mxCell id="C-vyLk0tnHw3VtMMgP7b-21" value="" style="shape=partialRectangle;overflow=hidden;connectable=0;fillColor=none;top=0;left=0;bottom=0;right=0;" parent="C-vyLk0tnHw3VtMMgP7b-20" vertex="1">
                    <mxGeometry width="30" height="30" as="geometry"/>
                </mxCell>
                <mxCell id="C-vyLk0tnHw3VtMMgP7b-22" value="shipment_date date NOT NULL" style="shape=partialRectangle;overflow=hidden;connectable=0;fillColor=none;top=0;left=0;bottom=0;right=0;align=left;spacingLeft=6;" parent="C-vyLk0tnHw3VtMMgP7b-20" vertex="1">
                    <mxGeometry x="30" width="220" height="30" as="geometry"/>
                </mxCell>
                <mxCell id="C-vyLk0tnHw3VtMMgP7b-23" value="Customers" style="shape=table;startSize=30;container=1;collapsible=1;childLayout=tableLayout;fixedRows=1;rowLines=0;fontStyle=1;align=center;resizeLast=1;" parent="1" vertex="1">
                    <mxGeometry x="120" y="120" width="250" height="100" as="geometry"/>
                </mxCell>
                <mxCell id="C-vyLk0tnHw3VtMMgP7b-24" value="" style="shape=partialRectangle;collapsible=0;dropTarget=0;pointerEvents=0;fillColor=none;points=[[0,0.5],[1,0.5]];portConstraint=eastwest;top=0;left=0;right=0;bottom=1;" parent="C-vyLk0tnHw3VtMMgP7b-23" vertex="1">
                    <mxGeometry y="30" width="250" height="30" as="geometry"/>
                </mxCell>
                <mxCell id="C-vyLk0tnHw3VtMMgP7b-25" value="PK" style="shape=partialRectangle;overflow=hidden;connectable=0;fillColor=none;top=0;left=0;bottom=0;right=0;fontStyle=1;" parent="C-vyLk0tnHw3VtMMgP7b-24" vertex="1">
                    <mxGeometry width="30" height="30" as="geometry"/>
                </mxCell>
                <mxCell id="C-vyLk0tnHw3VtMMgP7b-26" value="customer_id int NOT NULL " style="shape=partialRectangle;overflow=hidden;connectable=0;fillColor=none;top=0;left=0;bottom=0;right=0;align=left;spacingLeft=6;fontStyle=5;" parent="C-vyLk0tnHw3VtMMgP7b-24" vertex="1">
                    <mxGeometry x="30" width="220" height="30" as="geometry"/>
                </mxCell>
                <mxCell id="C-vyLk0tnHw3VtMMgP7b-27" value="" style="shape=partialRectangle;collapsible=0;dropTarget=0;pointerEvents=0;fillColor=none;points=[[0,0.5],[1,0.5]];portConstraint=eastwest;top=0;left=0;right=0;bottom=0;" parent="C-vyLk0tnHw3VtMMgP7b-23" vertex="1">
                    <mxGeometry y="60" width="250" height="30" as="geometry"/>
                </mxCell>
                <mxCell id="C-vyLk0tnHw3VtMMgP7b-28" value="" style="shape=partialRectangle;overflow=hidden;connectable=0;fillColor=none;top=0;left=0;bottom=0;right=0;" parent="C-vyLk0tnHw3VtMMgP7b-27" vertex="1">
                    <mxGeometry width="30" height="30" as="geometry"/>
                </mxCell>
                <mxCell id="C-vyLk0tnHw3VtMMgP7b-29" value="customer_name char(50) NOT NULL" style="shape=partialRectangle;overflow=hidden;connectable=0;fillColor=none;top=0;left=0;bottom=0;right=0;align=left;spacingLeft=6;" parent="C-vyLk0tnHw3VtMMgP7b-27" vertex="1">
                    <mxGeometry x="30" width="220" height="30" as="geometry"/>
                </mxCell>
                <mxCell id="u6JSft_4jdpx87X9us_S-1" value="Table" style="shape=table;startSize=30;container=1;collapsible=1;childLayout=tableLayout;fixedRows=1;rowLines=0;fontStyle=1;align=center;resizeLast=1;html=1;" parent="1" vertex="1">
                    <mxGeometry x="120" y="260" width="180" height="150" as="geometry"/>
                </mxCell>
                <mxCell id="u6JSft_4jdpx87X9us_S-2" value="" style="shape=tableRow;horizontal=0;startSize=0;swimlaneHead=0;swimlaneBody=0;fillColor=none;collapsible=0;dropTarget=0;points=[[0,0.5],[1,0.5]];portConstraint=eastwest;top=0;left=0;right=0;bottom=1;" parent="u6JSft_4jdpx87X9us_S-1" vertex="1">
                    <mxGeometry y="30" width="180" height="30" as="geometry"/>
                </mxCell>
                <mxCell id="u6JSft_4jdpx87X9us_S-3" value="PK" style="shape=partialRectangle;connectable=0;fillColor=none;top=0;left=0;bottom=0;right=0;fontStyle=1;overflow=hidden;whiteSpace=wrap;html=1;" parent="u6JSft_4jdpx87X9us_S-2" vertex="1">
                    <mxGeometry width="30" height="30" as="geometry">
                        <mxRectangle width="30" height="30" as="alternateBounds"/>
                    </mxGeometry>
                </mxCell>
                <mxCell id="u6JSft_4jdpx87X9us_S-4" value="UniqueID" style="shape=partialRectangle;connectable=0;fillColor=none;top=0;left=0;bottom=0;right=0;align=left;spacingLeft=6;fontStyle=5;overflow=hidden;whiteSpace=wrap;html=1;" parent="u6JSft_4jdpx87X9us_S-2" vertex="1">
                    <mxGeometry x="30" width="150" height="30" as="geometry">
                        <mxRectangle width="150" height="30" as="alternateBounds"/>
                    </mxGeometry>
                </mxCell>
                <mxCell id="u6JSft_4jdpx87X9us_S-5" value="" style="shape=tableRow;horizontal=0;startSize=0;swimlaneHead=0;swimlaneBody=0;fillColor=none;collapsible=0;dropTarget=0;points=[[0,0.5],[1,0.5]];portConstraint=eastwest;top=0;left=0;right=0;bottom=0;" parent="u6JSft_4jdpx87X9us_S-1" vertex="1">
                    <mxGeometry y="60" width="180" height="30" as="geometry"/>
                </mxCell>
                <mxCell id="u6JSft_4jdpx87X9us_S-6" value="" style="shape=partialRectangle;connectable=0;fillColor=none;top=0;left=0;bottom=0;right=0;editable=1;overflow=hidden;whiteSpace=wrap;html=1;" parent="u6JSft_4jdpx87X9us_S-5" vertex="1">
                    <mxGeometry width="30" height="30" as="geometry">
                        <mxRectangle width="30" height="30" as="alternateBounds"/>
                    </mxGeometry>
                </mxCell>
                <mxCell id="u6JSft_4jdpx87X9us_S-7" value="Row 1" style="shape=partialRectangle;connectable=0;fillColor=none;top=0;left=0;bottom=0;right=0;align=left;spacingLeft=6;overflow=hidden;whiteSpace=wrap;html=1;" parent="u6JSft_4jdpx87X9us_S-5" vertex="1">
                    <mxGeometry x="30" width="150" height="30" as="geometry">
                        <mxRectangle width="150" height="30" as="alternateBounds"/>
                    </mxGeometry>
                </mxCell>
                <mxCell id="u6JSft_4jdpx87X9us_S-8" value="" style="shape=tableRow;horizontal=0;startSize=0;swimlaneHead=0;swimlaneBody=0;fillColor=none;collapsible=0;dropTarget=0;points=[[0,0.5],[1,0.5]];portConstraint=eastwest;top=0;left=0;right=0;bottom=0;" parent="u6JSft_4jdpx87X9us_S-1" vertex="1">
                    <mxGeometry y="90" width="180" height="30" as="geometry"/>
                </mxCell>
                <mxCell id="u6JSft_4jdpx87X9us_S-9" value="" style="shape=partialRectangle;connectable=0;fillColor=none;top=0;left=0;bottom=0;right=0;editable=1;overflow=hidden;whiteSpace=wrap;html=1;" parent="u6JSft_4jdpx87X9us_S-8" vertex="1">
                    <mxGeometry width="30" height="30" as="geometry">
                        <mxRectangle width="30" height="30" as="alternateBounds"/>
                    </mxGeometry>
                </mxCell>
                <mxCell id="u6JSft_4jdpx87X9us_S-10" value="Row 2" style="shape=partialRectangle;connectable=0;fillColor=none;top=0;left=0;bottom=0;right=0;align=left;spacingLeft=6;overflow=hidden;whiteSpace=wrap;html=1;" parent="u6JSft_4jdpx87X9us_S-8" vertex="1">
                    <mxGeometry x="30" width="150" height="30" as="geometry">
                        <mxRectangle width="150" height="30" as="alternateBounds"/>
                    </mxGeometry>
                </mxCell>
                <mxCell id="u6JSft_4jdpx87X9us_S-11" value="" style="shape=tableRow;horizontal=0;startSize=0;swimlaneHead=0;swimlaneBody=0;fillColor=none;collapsible=0;dropTarget=0;points=[[0,0.5],[1,0.5]];portConstraint=eastwest;top=0;left=0;right=0;bottom=0;" parent="u6JSft_4jdpx87X9us_S-1" vertex="1">
                    <mxGeometry y="120" width="180" height="30" as="geometry"/>
                </mxCell>
                <mxCell id="u6JSft_4jdpx87X9us_S-12" value="" style="shape=partialRectangle;connectable=0;fillColor=none;top=0;left=0;bottom=0;right=0;editable=1;overflow=hidden;whiteSpace=wrap;html=1;" parent="u6JSft_4jdpx87X9us_S-11" vertex="1">
                    <mxGeometry width="30" height="30" as="geometry">
                        <mxRectangle width="30" height="30" as="alternateBounds"/>
                    </mxGeometry>
                </mxCell>
                <mxCell id="u6JSft_4jdpx87X9us_S-13" value="Row 3" style="shape=partialRectangle;connectable=0;fillColor=none;top=0;left=0;bottom=0;right=0;align=left;spacingLeft=6;overflow=hidden;whiteSpace=wrap;html=1;" parent="u6JSft_4jdpx87X9us_S-11" vertex="1">
                    <mxGeometry x="30" width="150" height="30" as="geometry">
                        <mxRectangle width="150" height="30" as="alternateBounds"/>
                    </mxGeometry>
                </mxCell>
            </root>
        </mxGraphModel>
    </diagram>
</mxfile>